<?xml version="1.0" encoding="UTF-8"?>
<svg id="Layer_1" data-name="Layer 1" xmlns="http://www.w3.org/2000/svg" version="1.1" viewBox="0 0 78 77.4">
  <defs>
    <style>
      .cls-1 {
        fill: #6d6e71;
      }

      .cls-1, .cls-2, .cls-3, .cls-4, .cls-5, .cls-6 {
        stroke-width: 0px;
      }

      .cls-2 {
        fill: #414042;
      }

      .cls-3 {
        fill: #cd6900;
      }

      .cls-4 {
        fill: #939598;
      }

      .cls-5 {
        fill: #a43f00;
      }

      .cls-6 {
        fill: #f5a617;
      }
    </style>
  </defs>
  <g>
    <path class="cls-4" d="M54.6,31.3s-12.8-7.5-38.4-6.1c.6-5.6,3.4-12.1,3.4-12.1,0,0,5.4,2.8,17.2,7.4,12.2,4.7,17.7,10.9,17.7,10.9Z"/>
    <polygon class="cls-5" points="60.6 32.6 70.3 10.2 68.6 11.3 57.7 32.3 40.8 68.9 44.1 69.1 60.6 32.6"/>
    <path class="cls-1" d="M56.2,31s-11.2-13.7-13.5-23.2c-4.4,4.6-7.2,10.1-7.2,10.1,0,0,13.6,6.1,20.7,13.1Z"/>
  </g>
  <polygon class="cls-2" points="57.2 30.7 67 9.5 55.4 28.7 57.2 30.7"/>
  <g>
    <path class="cls-6" d="M56,33.9s-10.7-10.1-48.1-6.3l-.2,36.5s16.3-38.4,48.3-30.1Z"/>
    <path class="cls-3" d="M38.7,69.6c5.6-10.8,17.4-35.7,17.4-35.7C24,25.7,7.7,64,7.7,64c0,0,20.9-.5,30.9,5.6Z"/>
  </g>
</svg>