<?xml version="1.0" encoding="UTF-8"?>
<svg id="Layer_1" data-name="Layer 1" xmlns="http://www.w3.org/2000/svg" version="1.1" viewBox="0 0 269 56">
  <defs>
    <style>
      .cls-1 {
        fill: #6d6e71;
      }

      .cls-1, .cls-2, .cls-3, .cls-4, .cls-5, .cls-6, .cls-7 {
        stroke-width: 0px;
      }

      .cls-2 {
        fill: #414042;
      }

      .cls-3 {
        fill: #cd6900;
      }

      .cls-4 {
        fill: #939598;
      }

      .cls-5 {
        fill: #a43f00;
      }

      .cls-6 {
        fill: #f5a617;
      }

      .cls-7 {
        fill: #fff;
      }
    </style>
  </defs>
  <g>
    <g>
      <path class="cls-4" d="M43.1,21.1s-11.5-6.7-34.4-5.5c.6-5,3.1-10.9,3.1-10.9,0,0,4.9,2.5,15.5,6.6,10.9,4.2,15.9,9.8,15.9,9.8Z"/>
      <polygon class="cls-5" points="48.6 22.2 57.2 2.2 55.7 3.1 46 21.9 30.8 54.8 33.8 55 48.6 22.2"/>
      <path class="cls-1" d="M44.6,20.8S34.6,8.5,32.5,0c-4,4.1-6.5,9-6.5,9,0,0,12.2,5.5,18.6,11.8Z"/>
    </g>
    <polygon class="cls-2" points="45.5 20.6 54.3 1.5 43.9 18.7 45.5 20.6"/>
    <g>
      <path class="cls-6" d="M44.5,23.4S34.9,14.3,1.3,17.7l-.2,32.7S15.7,16,44.5,23.4Z"/>
      <path class="cls-3" d="M28.9,55.5c5.1-9.7,15.6-32.1,15.6-32.1C15.7,16,1.1,50.4,1.1,50.4c0,0,18.8-.5,27.8,5Z"/>
    </g>
  </g>
  <g>
    <path class="cls-7" d="M63.3,24.9c0-5,3.8-8.6,9-8.6s9,3.6,9,8.6-3.8,8.6-9,8.6-9-3.7-9-8.6ZM78.2,24.9c0-3.4-2.5-5.9-5.9-5.9s-5.9,2.5-5.9,5.9,2.5,5.9,5.9,5.9,5.9-2.5,5.9-5.9Z"/>
    <path class="cls-7" d="M95.3,29.4h-8.4l-1.7,3.9h-3.2l7.6-16.8h3.1l7.6,16.8h-3.3l-1.7-3.9ZM94.3,27l-3.2-7.3-3.1,7.3h6.3Z"/>
    <path class="cls-7" d="M101,31.5l1.1-2.4c1.3,1.1,3.5,1.8,5.5,1.8s3.7-.9,3.7-2.2c0-3.6-10-1.2-10-7.5s2.2-5,6.8-5,4.1.5,5.6,1.5l-1,2.4c-1.5-.9-3.2-1.3-4.6-1.3-2.6,0-3.6,1-3.6,2.3,0,3.6,10,1.2,10,7.4s-2.2,5-6.8,5-5.2-.8-6.6-2Z"/>
    <path class="cls-7" d="M117.4,13.2c0-1,.7-1.7,1.7-1.7s1.7.7,1.7,1.7-.7,1.7-1.7,1.7-1.7-.7-1.7-1.7ZM117.5,16.5h3.1v16.8h-3.1v-16.8Z"/>
    <path class="cls-7" d="M123.8,31.5l1.1-2.4c1.3,1.1,3.5,1.8,5.5,1.8s3.7-.9,3.7-2.2c0-3.6-10-1.2-10-7.5s2.2-5,6.8-5,4.1.5,5.6,1.5l-1,2.4c-1.5-.9-3.2-1.3-4.6-1.3-2.6,0-3.6,1-3.6,2.3,0,3.6,10,1.2,10,7.4s-2.2,5-6.8,5-5.2-.8-6.6-2Z"/>
    <path class="cls-7" d="M161.8,28.8c0,2.9-2.3,4.6-6.6,4.6h-8.4v-16.8h7.9c4,0,6.2,1.7,6.2,4.4s-.9,3-2.2,3.7c1.8.6,3,2,3,4.2ZM150,19v4.6h4.4c2.2,0,3.4-.8,3.4-2.3s-1.2-2.3-3.4-2.3h-4.4ZM158.7,28.5c0-1.7-1.3-2.4-3.6-2.4h-5v4.8h5c2.4,0,3.6-.7,3.6-2.4Z"/>
    <path class="cls-7" d="M164,24.9c0-5,3.8-8.6,9-8.6s9,3.6,9,8.6-3.8,8.6-9,8.6-9-3.7-9-8.6ZM178.9,24.9c0-3.4-2.5-5.9-5.9-5.9s-5.9,2.5-5.9,5.9,2.5,5.9,5.9,5.9,5.9-2.5,5.9-5.9Z"/>
    <path class="cls-7" d="M184.2,24.9c0-5,3.8-8.6,9-8.6s9,3.6,9,8.6-3.8,8.6-9,8.6-9-3.7-9-8.6ZM199.1,24.9c0-3.4-2.5-5.9-5.9-5.9s-5.9,2.5-5.9,5.9,2.5,5.9,5.9,5.9,5.9-2.5,5.9-5.9Z"/>
    <path class="cls-7" d="M211.4,26.3l-2.7,2.7v4.3h-3.1v-16.8h3.1v8.6l8.3-8.6h3.5l-7.1,7.5,7.5,9.3h-3.6l-5.9-7Z"/>
    <path class="cls-7" d="M221.3,31.5l1.1-2.4c1.3,1.1,3.5,1.8,5.5,1.8s3.7-.9,3.7-2.2c0-3.6-10-1.2-10-7.5s2.2-5,6.8-5,4.1.5,5.6,1.5l-1,2.4c-1.5-.9-3.2-1.3-4.6-1.3-2.6,0-3.6,1-3.6,2.3,0,3.6,10,1.2,10,7.4s-2.2,5-6.8,5-5.2-.8-6.6-2Z"/>
  </g>
  <g>
    <path class="cls-7" d="M193.2,49.2c0-1.2.8-1.9,1.9-1.9s1.7.7,1.7,1.6-.9,1.9-1.9,1.9-1.7-.7-1.7-1.6Z"/>
    <path class="cls-7" d="M205.1,45.8l2.7,4.9h-3l-1.6-3-2.8,3h-3.3l4.9-5.1-2.6-4.8h3l1.6,2.9,2.7-2.9h3.2l-4.7,4.9Z"/>
    <path class="cls-7" d="M227.1,44c0,.4,0,.8-.1,1.2l-1.1,5.5h-2.9l1-5.3c0-.3,0-.5,0-.8,0-1-.5-1.5-1.6-1.5s-2.2.8-2.6,2.5l-1,5.1h-2.9l1-5.3c0-.3,0-.5,0-.7,0-1-.5-1.5-1.6-1.5s-2.2.8-2.6,2.5l-1,5h-2.9l2-9.9h2.7l-.2,1c.9-.8,1.9-1.2,3.1-1.2s2.5.6,3,1.6c1-1,2.2-1.6,3.8-1.6s3.5,1.2,3.5,3.3Z"/>
    <path class="cls-7" d="M231.2,37.1h2.9l-2.7,13.6h-2.9l2.7-13.6Z"/>
  </g>
</svg>